<svg xmlns="http://www.w3.org/2000/svg" viewBox="0 0 440.0 785.0" width="440.0" height="785.0" style="max-width:100%;height:auto;">
  <rect width="440.0" height="785.0" fill="url(#astro-bg-gradient)" rx="4" />
  <defs>
    <marker id="arrow-green" markerWidth="8" markerHeight="6" refX="8" refY="3" orient="auto">
      <polygon points="0 0, 8 3, 0 6" fill="#2E7D32" />
    </marker>
    
    <linearGradient id="astro-bg-gradient" x1="0" y1="0" x2="0" y2="1" gradientUnits="objectBoundingBox">
      <stop offset="0%" stop-color="#D9CAC1" stop-opacity="1" />
      <stop offset="50%" stop-color="#A09D9D" stop-opacity="1" />
      <stop offset="100%" stop-color="#615F5E" stop-opacity="1" />
    </linearGradient>
  </defs>
  <g id="z3-layer">
    
    <defs>
  <filter id="shadow-ffn" x="-20%" y="-20%" width="140%" height="140%">
    <feDropShadow dx="2.0" dy="2.0" stdDeviation="3.38" flood-color="#000000" flood-opacity="0.08" />
  </filter>
</defs>



<g id="cell-ffn" data-z="3" opacity="0.0500" filter="url(#shadow-ffn)" transform="translate(220.0,470.0)">
<rect x="72.458" y="185.817" width="140" height="45" rx="8" fill="#FFF3E0" stroke="#E65100" stroke-width="1.5" />
<path fill="none" stroke="#E65100" stroke-width="2" opacity="0.7" d="M 10.000,27.500 C 28.800,27.500 31.200,27.500 30.000,27.500 C 48.800,27.500 51.200,27.500 50.000,27.500 C 68.800,27.500 71.149,27.155 70.000,27.500 C 88.851,21.845 91.149,21.155 90.000,21.500 C 108.851,15.845 111.149,15.155 110.000,15.500 L 130.000,9.500" /><text x="142.458" y="197.817" text-anchor="middle" font-family="system-ui,sans-serif" font-size="10" fill="#BF360C">Feed Forward</text>

<g class="decal-overlay" opacity="1.000">
  
  <path d="M 67.220,14.170 C 71.214,20.553 70.878,22.274 71.850,21.570 C 69.492,23.276 69.172,24.987 68.520,23.980 L 72.590,30.270" fill="none" stroke="white" stroke-width="1.8" stroke-linecap="round" stroke-linejoin="round" opacity="0.300" />
  <path d="M 67.220,14.170 C 71.214,20.553 70.878,22.274 71.850,21.570 C 69.492,23.276 69.172,24.987 68.520,23.980 L 72.590,30.270" fill="none" stroke="#FFE0B2" stroke-width="3.5" stroke-linecap="round" stroke-linejoin="round" opacity="0.105" />
</g>
</g>
    
    <defs>
  <filter id="shadow-output" x="-20%" y="-20%" width="140%" height="140%">
    <feDropShadow dx="2.0" dy="2.0" stdDeviation="3.75" flood-color="#000000" flood-opacity="0.35" />
  </filter>
</defs>



<g id="cell-output" data-z="3" opacity="0.0937" filter="url(#shadow-output)" transform="translate(220.0,675.0)">
<rect x="72.458" y="185.817" width="160" height="50" rx="8" fill="#ECEFF1" stroke="#455A64" stroke-width="1.5" />
<polygon points="32.0,17.0 128.0,25.0 32.0,33.0" fill="#455A64" opacity="0.5" />
<text x="152.458" y="197.817" text-anchor="middle" font-family="system-ui,sans-serif" font-size="10" fill="#263238">Output</text>
</g>
    
    <defs>
  <filter id="shadow-self_attn" x="-20%" y="-20%" width="140%" height="140%">
    <feDropShadow dx="2.0" dy="2.0" stdDeviation="3.75" flood-color="#000000" flood-opacity="0.35" />
  </filter>
</defs>



<g id="cell-self_attn" data-z="3" opacity="0.0500" filter="url(#shadow-self_attn)" transform="translate(220.0,260.0)">
<rect x="72.458" y="185.817" width="160" height="50" rx="8" fill="#E8EAF6" stroke="#3F51B5" stroke-width="1.5" />
<line x1="158.758" y1="210.817" x2="173.458" y2="210.817" stroke="#3F51B5" stroke-width="1" opacity="0.60" />
<line x1="157.558" y1="214.517" x2="169.458" y2="223.117" stroke="#3F51B5" stroke-width="1" opacity="0.56" />
<line x1="154.358" y1="216.817" x2="158.958" y2="230.817" stroke="#3F51B5" stroke-width="1" opacity="0.52" />
<line x1="150.558" y1="216.817" x2="145.958" y2="230.817" stroke="#3F51B5" stroke-width="1" opacity="0.47" />
<line x1="147.358" y1="214.517" x2="135.458" y2="223.117" stroke="#3F51B5" stroke-width="1" opacity="0.43" />
<line x1="146.158" y1="210.817" x2="131.458" y2="210.817" stroke="#3F51B5" stroke-width="1" opacity="0.39" />
<line x1="147.358" y1="207.117" x2="135.458" y2="198.517" stroke="#3F51B5" stroke-width="1" opacity="0.35" />
<line x1="150.558" y1="204.817" x2="145.958" y2="190.817" stroke="#3F51B5" stroke-width="1" opacity="0.31" />
<line x1="154.358" y1="204.817" x2="158.958" y2="190.817" stroke="#3F51B5" stroke-width="1" opacity="0.26" />
<line x1="157.558" y1="207.117" x2="169.458" y2="198.517" stroke="#3F51B5" stroke-width="1" opacity="0.22" />
<circle cx="152.458" cy="210.817" r="4.2" fill="#3F51B5" opacity="0.7" />
<circle cx="152.458" cy="210.817" r="1.68" fill="#E8EAF6" />
<text x="152.458" y="197.817" text-anchor="middle" font-family="system-ui,sans-serif" font-size="10" fill="#1A237E">Multi-Head Attention</text>

<g class="decal-overlay" opacity="1.000">
  
  <circle cx="158.338" cy="204.937" r="2.52" fill="white" opacity="0.450" />
  <circle cx="160.858" cy="207.457" r="1.13" fill="white" opacity="0.225" />
</g>
</g>
  </g>
  <g id="z5-layer">
    
    <defs>
  <filter id="shadow-pos_encode" x="-20%" y="-20%" width="140%" height="140%">
    <feDropShadow dx="8.0" dy="8.0" stdDeviation="5.35" flood-color="#000000" flood-opacity="0.55" />
  </filter>
</defs>



<g id="cell-pos_encode" data-z="5" opacity="0.0500" filter="url(#shadow-pos_encode)" transform="translate(220.0,150.0)">
<rect x="72.458" y="185.817" width="160" height="50" rx="8" fill="#E8F5E9" stroke="#2E7D32" stroke-width="1.5" />
<line x1="130.358" y1="222.117" x2="174.558" y2="203.517" stroke="#2E7D32" stroke-width="1.0" opacity="0.5" marker-end="url(#arrow-green)" />
<line x1="128.958" y1="217.617" x2="175.958" y2="208.017" stroke="#2E7D32" stroke-width="1.5" opacity="0.5" marker-end="url(#arrow-green)" />
<line x1="128.458" y1="212.817" x2="176.458" y2="212.817" stroke="#2E7D32" stroke-width="2.0" opacity="0.5" marker-end="url(#arrow-green)" />
<line x1="128.958" y1="208.017" x2="175.958" y2="217.617" stroke="#2E7D32" stroke-width="1.0" opacity="0.5" marker-end="url(#arrow-green)" />
<line x1="130.358" y1="203.517" x2="174.558" y2="222.117" stroke="#2E7D32" stroke-width="1.5" opacity="0.5" marker-end="url(#arrow-green)" />
<text x="152.458" y="197.817" text-anchor="middle" font-family="system-ui,sans-serif" font-size="10" fill="#1B5E20">Positional Encoding</text>

<g class="decal-overlay" opacity="1.000">
  
  <defs><marker id="decal-arrow-3022" markerWidth="6" markerHeight="6" refX="3" refY="3" orient="auto"><path d="M0,0 L6,3 L0,6 Z" fill="#2E7D32" opacity="0.350" /></marker></defs>
  <line x1="146.908" y1="209.237" x2="158.008" y2="212.397" stroke="#2E7D32" stroke-width="1.5" opacity="0.350" marker-end="url(#decal-arrow-3022)" />
</g>
</g>
    
    <defs>
  <filter id="shadow-input_embed" x="-20%" y="-20%" width="140%" height="140%">
    <feDropShadow dx="8.0" dy="8.0" stdDeviation="5.35" flood-color="#000000" flood-opacity="0.55" />
  </filter>
</defs>



<g id="cell-input_embed" data-z="5" opacity="0.0500" filter="url(#shadow-input_embed)" transform="translate(220.0,40.0)">
<rect x="72.458" y="185.817" width="160" height="50" rx="8" fill="#E8F5E9" stroke="#2E7D32" stroke-width="1.5" />
<line x1="130.358" y1="222.117" x2="174.558" y2="203.517" stroke="#2E7D32" stroke-width="1.0" opacity="0.5" marker-end="url(#arrow-green)" />
<line x1="128.958" y1="217.617" x2="175.958" y2="208.017" stroke="#2E7D32" stroke-width="1.5" opacity="0.5" marker-end="url(#arrow-green)" />
<line x1="128.458" y1="212.817" x2="176.458" y2="212.817" stroke="#2E7D32" stroke-width="2.0" opacity="0.5" marker-end="url(#arrow-green)" />
<line x1="128.958" y1="208.017" x2="175.958" y2="217.617" stroke="#2E7D32" stroke-width="1.0" opacity="0.5" marker-end="url(#arrow-green)" />
<line x1="130.358" y1="203.517" x2="174.558" y2="222.117" stroke="#2E7D32" stroke-width="1.5" opacity="0.5" marker-end="url(#arrow-green)" />
<text x="152.458" y="197.817" text-anchor="middle" font-family="system-ui,sans-serif" font-size="10" fill="#1B5E20">Input Embedding</text>

<g class="decal-overlay" opacity="1.000">
  
  <defs><marker id="decal-arrow-3158" markerWidth="6" markerHeight="6" refX="3" refY="3" orient="auto"><path d="M0,0 L6,3 L0,6 Z" fill="#2E7D32" opacity="0.350" /></marker></defs>
  <line x1="146.698" y1="210.357" x2="158.218" y2="211.277" stroke="#2E7D32" stroke-width="1.5" opacity="0.350" marker-end="url(#decal-arrow-3158)" />
</g>
</g>
    
    <defs>
  <filter id="shadow-add_norm1" x="-20%" y="-20%" width="140%" height="140%">
    <feDropShadow dx="8.0" dy="8.0" stdDeviation="4.6" flood-color="#000000" flood-opacity="0.55" />
  </filter>
</defs>



<g id="cell-add_norm1" data-z="5" opacity="0.0500" filter="url(#shadow-add_norm1)" transform="translate(220.0,370.0)">
<rect x="72.458" y="185.817" width="140" height="40" rx="8" fill="#FCE4EC" stroke="#C62828" stroke-width="1.5" />
<line x1="132.458" y1="205.817" x2="152.458" y2="205.817" stroke="#C62828" stroke-width="2.5" opacity="0.6" />
<line x1="142.458" y1="195.817" x2="142.458" y2="215.817" stroke="#C62828" stroke-width="2.5" opacity="0.6" />
<line x1="130.458" y1="193.817" x2="142.458" y2="205.817" stroke="#C62828" stroke-width="0.8" opacity="0.3" stroke-dasharray="3,2" />
<line x1="154.458" y1="193.817" x2="142.458" y2="205.817" stroke="#C62828" stroke-width="0.8" opacity="0.3" stroke-dasharray="3,2" />
<line x1="130.458" y1="217.817" x2="142.458" y2="205.817" stroke="#C62828" stroke-width="0.8" opacity="0.3" stroke-dasharray="3,2" />
<line x1="154.458" y1="217.817" x2="142.458" y2="205.817" stroke="#C62828" stroke-width="0.8" opacity="0.3" stroke-dasharray="3,2" />
<text x="142.458" y="197.817" text-anchor="middle" font-family="system-ui,sans-serif" font-size="10" fill="#B71C1C">Add and Norm</text>

<g class="decal-overlay" opacity="1.000">
  
  <line x1="133.658" y1="202.937" x2="151.258" y2="202.937" stroke="#C62828" stroke-width="0.7" opacity="0.200" stroke-dasharray="4,3" />
  <line x1="133.658" y1="205.817" x2="151.258" y2="205.817" stroke="#C62828" stroke-width="0.7" opacity="0.200" stroke-dasharray="4,3" />
  <line x1="133.658" y1="208.697" x2="151.258" y2="208.697" stroke="#C62828" stroke-width="0.7" opacity="0.200" stroke-dasharray="4,3" />
  <line x1="139.578" y1="197.017" x2="139.578" y2="214.617" stroke="#C62828" stroke-width="0.7" opacity="0.200" stroke-dasharray="4,3" />
  <line x1="142.458" y1="197.017" x2="142.458" y2="214.617" stroke="#C62828" stroke-width="0.7" opacity="0.200" stroke-dasharray="4,3" />
  <line x1="145.338" y1="197.017" x2="145.338" y2="214.617" stroke="#C62828" stroke-width="0.7" opacity="0.200" stroke-dasharray="4,3" />
</g>
</g>
    
    <defs>
  <filter id="shadow-add_norm2" x="-20%" y="-20%" width="140%" height="140%">
    <feDropShadow dx="8.0" dy="8.0" stdDeviation="4.6" flood-color="#000000" flood-opacity="0.55" />
  </filter>
</defs>



<g id="cell-add_norm2" data-z="5" opacity="0.0500" filter="url(#shadow-add_norm2)" transform="translate(220.0,575.0)">
<rect x="72.458" y="185.817" width="140" height="40" rx="8" fill="#FCE4EC" stroke="#C62828" stroke-width="1.5" />
<line x1="132.458" y1="205.817" x2="152.458" y2="205.817" stroke="#C62828" stroke-width="2.5" opacity="0.6" />
<line x1="142.458" y1="195.817" x2="142.458" y2="215.817" stroke="#C62828" stroke-width="2.5" opacity="0.6" />
<line x1="130.458" y1="193.817" x2="142.458" y2="205.817" stroke="#C62828" stroke-width="0.8" opacity="0.3" stroke-dasharray="3,2" />
<line x1="154.458" y1="193.817" x2="142.458" y2="205.817" stroke="#C62828" stroke-width="0.8" opacity="0.3" stroke-dasharray="3,2" />
<line x1="130.458" y1="217.817" x2="142.458" y2="205.817" stroke="#C62828" stroke-width="0.8" opacity="0.3" stroke-dasharray="3,2" />
<line x1="154.458" y1="217.817" x2="142.458" y2="205.817" stroke="#C62828" stroke-width="0.8" opacity="0.3" stroke-dasharray="3,2" />
<text x="142.458" y="197.817" text-anchor="middle" font-family="system-ui,sans-serif" font-size="10" fill="#B71C1C">Add and Norm</text>

<g class="decal-overlay" opacity="1.000">
  
  <line x1="133.658" y1="202.937" x2="151.258" y2="202.937" stroke="#C62828" stroke-width="0.7" opacity="0.200" stroke-dasharray="4,3" />
  <line x1="133.658" y1="205.817" x2="151.258" y2="205.817" stroke="#C62828" stroke-width="0.7" opacity="0.200" stroke-dasharray="4,3" />
  <line x1="133.658" y1="208.697" x2="151.258" y2="208.697" stroke="#C62828" stroke-width="0.7" opacity="0.200" stroke-dasharray="4,3" />
  <line x1="139.578" y1="197.017" x2="139.578" y2="214.617" stroke="#C62828" stroke-width="0.7" opacity="0.200" stroke-dasharray="4,3" />
  <line x1="142.458" y1="197.017" x2="142.458" y2="214.617" stroke="#C62828" stroke-width="0.7" opacity="0.200" stroke-dasharray="4,3" />
  <line x1="145.338" y1="197.017" x2="145.338" y2="214.617" stroke="#C62828" stroke-width="0.7" opacity="0.200" stroke-dasharray="4,3" />
</g>
</g>
  </g>
  <g id="edges-layer" style="pointer-events:none;">
    <path d="M300.0,90.0 L300.0,150.0" stroke="#888" stroke-width="1.5" fill="none" marker-end="url(#arrow-green)" />
    <path d="M300.0,200.0 L300.0,260.0" stroke="#888" stroke-width="1.5" fill="none" marker-end="url(#arrow-green)" />
    <path d="M300.0,310.0 L290.0,370.0" stroke="#888" stroke-width="1.5" fill="none" marker-end="url(#arrow-green)" />
    <path d="M290.0,410.0 L290.0,470.0" stroke="#888" stroke-width="1.5" fill="none" marker-end="url(#arrow-green)" />
    <path d="M290.0,515.0 L290.0,575.0" stroke="#888" stroke-width="1.5" fill="none" marker-end="url(#arrow-green)" />
    <path d="M290.0,615.0 L300.0,675.0" stroke="#888" stroke-width="1.5" fill="none" marker-end="url(#arrow-green)" />
    
    <path d="M340.0,200.0 C278.5,222.4 236.0,307.4 217.0,244.8 S236.0,307.4 255.0,370.0" stroke="#4CAF50" stroke-width="2" fill="none" stroke-dasharray="5,3" marker-end="url(#arrow-green)" />
    
    <path d="M325.0,410.0 C266.1,433.7 231.1,516.2 207.1,457.4 S231.1,516.2 255.0,575.0" stroke="#4CAF50" stroke-width="2" fill="none" stroke-dasharray="5,3" marker-end="url(#arrow-green)" />
  </g>
</svg>