<svg xmlns="http://www.w3.org/2000/svg" viewBox="0 0 440 785" width="440" height="785" style="max-width:100%;height:auto;">
  <rect width="440" height="785" fill="#FAFAFA" rx="4"/>
  <defs>
    <marker id="arrow-green" markerWidth="8" markerHeight="6" refX="8" refY="3" orient="auto">
      <polygon points="0 0, 8 3, 0 6" fill="#2E7D32"/>
    </marker>
  </defs>
  <g id="z3-layer">
    <!-- cell: self_attn -->
    <g id="cell-self_attn" data-z="3" transform="translate(220,260)">
<defs><radialGradient id="attn-heat-self_attn" cx="50%" cy="50%" r="50%"><stop offset="0%" stop-color="#3F51B5" stop-opacity="0.9"/><stop offset="60%" stop-color="#7986CB" stop-opacity="0.4"/><stop offset="100%" stop-color="#E8EAF6" stop-opacity="0.0"/></radialGradient></defs>
<rect x="0" y="0" width="160" height="50" rx="8" fill="#E8EAF6" stroke="#3F51B5" stroke-width="1.5"/>
<circle cx="80.0" cy="25.0" r="21.0" fill="url(#attn-heat-self_attn)"/>
<path d="M 89.0,27.9 A 9.5,9.5 0 1,1 89.0,22.1" fill="none" stroke="#283593" stroke-width="1.2" stroke-dasharray="4,2" opacity="0.55"/>
<path d="M 91.8,31.0 A 13.2,13.2 0 1,1 91.8,19.0" fill="none" stroke="#5C6BC0" stroke-width="1.2" stroke-dasharray="3,3" opacity="0.45"/>
<path d="M 93.8,35.0 A 17.0,17.0 0 1,1 93.8,15.0" fill="none" stroke="#9FA8DA" stroke-width="1.2" stroke-dasharray="2,4" opacity="0.35"/>
<line x1="85.2" y1="25.0" x2="101.0" y2="25.0" stroke="#3F51B5" stroke-width="2.0" opacity="0.85"/>
<line x1="84.2" y1="28.1" x2="94.5" y2="35.5" stroke="#3F51B5" stroke-width="1.6" opacity="0.65"/>
<line x1="81.6" y1="30.0" x2="84.9" y2="40.0" stroke="#3F51B5" stroke-width="1.3" opacity="0.52"/>
<line x1="78.4" y1="30.0" x2="73.6" y2="44.6" stroke="#3F51B5" stroke-width="2.0" opacity="0.83"/>
<line x1="75.8" y1="28.1" x2="64.2" y2="36.5" stroke="#3F51B5" stroke-width="1.8" opacity="0.76"/>
<line x1="74.8" y1="25.0" x2="66.6" y2="25.0" stroke="#3F51B5" stroke-width="1.0" opacity="0.37"/>
<line x1="75.8" y1="21.9" x2="64.2" y2="13.5" stroke="#3F51B5" stroke-width="1.8" opacity="0.76"/>
<line x1="78.4" y1="20.0" x2="73.6" y2="5.4" stroke="#3F51B5" stroke-width="2.0" opacity="0.83"/>
<line x1="81.6" y1="20.0" x2="84.9" y2="10.0" stroke="#3F51B5" stroke-width="1.3" opacity="0.52"/>
<line x1="84.2" y1="21.9" x2="94.5" y2="14.5" stroke="#3F51B5" stroke-width="1.6" opacity="0.65"/>
<circle cx="80.0" cy="49.0" r="4" fill="#C62828" opacity="0.75"/><text x="80.0" y="52.5" text-anchor="middle" font-family="system-ui,sans-serif" font-size="5" font-weight="bold" fill="#FFFFFF">Q</text>
<circle cx="59.3" cy="12.8" r="4" fill="#1565C0" opacity="0.75"/><text x="59.3" y="16.3" text-anchor="middle" font-family="system-ui,sans-serif" font-size="5" font-weight="bold" fill="#FFFFFF">K</text>
<circle cx="100.7" cy="12.8" r="4" fill="#1B5E20" opacity="0.75"/><text x="100.7" y="16.3" text-anchor="middle" font-family="system-ui,sans-serif" font-size="5" font-weight="bold" fill="#FFFFFF">V</text>
<circle cx="80.0" cy="25.0" r="3.8" fill="#3F51B5" opacity="0.85"/>
<circle cx="80.0" cy="25.0" r="1.5" fill="#E8EAF6" opacity="0.95"/>
<text x="80.0" y="45" text-anchor="middle" font-family="system-ui,sans-serif" font-size="9" font-weight="600" fill="#1A237E">Multi-Head Attention</text>
</g>
    <!-- cell: input_embed -->
    <g id="cell-input_embed" data-z="3" transform="translate(220,40)">
<rect x="0" y="0" width="160" height="50" rx="8" fill="#E8F5E9" stroke="#2E7D32" stroke-width="1.5"/>
<line x1="57.9" y1="36.3" x2="102.1" y2="17.7" stroke="#2E7D32" stroke-width="1.0" opacity="0.5" marker-end="url(#arrow-green)"/>
<line x1="56.5" y1="31.8" x2="103.5" y2="22.2" stroke="#2E7D32" stroke-width="1.5" opacity="0.5" marker-end="url(#arrow-green)"/>
<line x1="56.0" y1="27.0" x2="104.0" y2="27.0" stroke="#2E7D32" stroke-width="2.0" opacity="0.5" marker-end="url(#arrow-green)"/>
<line x1="56.5" y1="22.2" x2="103.5" y2="31.8" stroke="#2E7D32" stroke-width="1.0" opacity="0.5" marker-end="url(#arrow-green)"/>
<line x1="57.9" y1="17.7" x2="102.1" y2="36.3" stroke="#2E7D32" stroke-width="1.5" opacity="0.5" marker-end="url(#arrow-green)"/>
<text x="80.0" y="44" text-anchor="middle" font-family="system-ui,sans-serif" font-size="10" fill="#1B5E20">Input Embedding</text>
</g>
    <!-- cell: ffn -->
    <g id="cell-ffn" data-z="3" transform="translate(230,470)">
<rect x="0" y="0" width="140" height="45" rx="8" fill="#FFF3E0" stroke="#E65100" stroke-width="1.5"/>
<polyline points="10.0,27.5 30.0,27.5 50.0,27.5 70.0,27.5 90.0,21.5 110.0,15.5 130.0,9.5" fill="none" stroke="#E65100" stroke-width="2" opacity="0.7"/>
<text x="70.0" y="39" text-anchor="middle" font-family="system-ui,sans-serif" font-size="10" fill="#BF360C">Feed Forward</text>
</g>
    <!-- cell: output -->
    <g id="cell-output" data-z="3" transform="translate(220,675)">
<rect x="0" y="0" width="160" height="50" rx="8" fill="#ECEFF1" stroke="#455A64" stroke-width="1.5"/>
<polygon points="32.0,17.0 128.0,25.0 32.0,33.0" fill="#455A64" opacity="0.5"/>
<text x="80.0" y="44" text-anchor="middle" font-family="system-ui,sans-serif" font-size="10" fill="#263238">Output</text>
</g>
  </g>
  <g id="z5-layer">
    <!-- cell: add_norm2 -->
    <g id="cell-add_norm2" data-z="5" transform="translate(230,575)">
<rect x="0" y="0" width="140" height="40" rx="8" fill="#FCE4EC" stroke="#C62828" stroke-width="1.5"/>
<line x1="60.0" y1="20.0" x2="80.0" y2="20.0" stroke="#C62828" stroke-width="2.5" opacity="0.6"/>
<line x1="70.0" y1="10.0" x2="70.0" y2="30.0" stroke="#C62828" stroke-width="2.5" opacity="0.6"/>
<line x1="58.0" y1="8.0" x2="70.0" y2="20.0" stroke="#C62828" stroke-width="0.8" opacity="0.3" stroke-dasharray="3,2"/>
<line x1="82.0" y1="8.0" x2="70.0" y2="20.0" stroke="#C62828" stroke-width="0.8" opacity="0.3" stroke-dasharray="3,2"/>
<line x1="58.0" y1="32.0" x2="70.0" y2="20.0" stroke="#C62828" stroke-width="0.8" opacity="0.3" stroke-dasharray="3,2"/>
<line x1="82.0" y1="32.0" x2="70.0" y2="20.0" stroke="#C62828" stroke-width="0.8" opacity="0.3" stroke-dasharray="3,2"/>
<text x="70.0" y="34" text-anchor="middle" font-family="system-ui,sans-serif" font-size="10" fill="#B71C1C">Add and Norm</text>
</g>
    <!-- cell: add_norm1 -->
    <g id="cell-add_norm1" data-z="5" transform="translate(230,370)">
<rect x="0" y="0" width="140" height="40" rx="8" fill="#FCE4EC" stroke="#C62828" stroke-width="1.5"/>
<line x1="60.0" y1="20.0" x2="80.0" y2="20.0" stroke="#C62828" stroke-width="2.5" opacity="0.6"/>
<line x1="70.0" y1="10.0" x2="70.0" y2="30.0" stroke="#C62828" stroke-width="2.5" opacity="0.6"/>
<line x1="58.0" y1="8.0" x2="70.0" y2="20.0" stroke="#C62828" stroke-width="0.8" opacity="0.3" stroke-dasharray="3,2"/>
<line x1="82.0" y1="8.0" x2="70.0" y2="20.0" stroke="#C62828" stroke-width="0.8" opacity="0.3" stroke-dasharray="3,2"/>
<line x1="58.0" y1="32.0" x2="70.0" y2="20.0" stroke="#C62828" stroke-width="0.8" opacity="0.3" stroke-dasharray="3,2"/>
<line x1="82.0" y1="32.0" x2="70.0" y2="20.0" stroke="#C62828" stroke-width="0.8" opacity="0.3" stroke-dasharray="3,2"/>
<text x="70.0" y="34" text-anchor="middle" font-family="system-ui,sans-serif" font-size="10" fill="#B71C1C">Add and Norm</text>
</g>
    <!-- cell: pos_encode -->
    <g id="cell-pos_encode" data-z="5" transform="translate(220,150)">
<rect x="0" y="0" width="160" height="50" rx="8" fill="#E8F5E9" stroke="#2E7D32" stroke-width="1.5"/>
<line x1="57.9" y1="36.3" x2="102.1" y2="17.7" stroke="#2E7D32" stroke-width="1.0" opacity="0.5" marker-end="url(#arrow-green)"/>
<line x1="56.5" y1="31.8" x2="103.5" y2="22.2" stroke="#2E7D32" stroke-width="1.5" opacity="0.5" marker-end="url(#arrow-green)"/>
<line x1="56.0" y1="27.0" x2="104.0" y2="27.0" stroke="#2E7D32" stroke-width="2.0" opacity="0.5" marker-end="url(#arrow-green)"/>
<line x1="56.5" y1="22.2" x2="103.5" y2="31.8" stroke="#2E7D32" stroke-width="1.0" opacity="0.5" marker-end="url(#arrow-green)"/>
<line x1="57.9" y1="17.7" x2="102.1" y2="36.3" stroke="#2E7D32" stroke-width="1.5" opacity="0.5" marker-end="url(#arrow-green)"/>
<text x="80.0" y="44" text-anchor="middle" font-family="system-ui,sans-serif" font-size="10" fill="#1B5E20">Positional Encoding</text>
</g>
  </g>
</svg>